# xmcd CD database file
#
# Track frame offsets:
#	150
#	20062
#	41189
#	57839
#	80456
#	119305
#	142430
#	164027
#	184106
#	197778
#	230013
#	258630
#
# Disc length: 3699 seconds
#
# Revision: 2
# Processed by: cddbd v1.5.2PL0 Copyright (c) Steve Scherf et al.
# Submitted via: CDex 1.51
#
DISCID=bb0e710c
DTITLE=Eric Clapton and BB King - Riding with the king
DYEAR=2000
DGENRE=Blues
TTITLE0=1. Riding With The King 
TTITLE1=2. Ten Long Years 
TTITLE2=3. Key To The Highway
TTITLE3=4. Marry You 
TTITLE4=5. Three O'Clock Blues
TTITLE5=6. Help The Poor 
TTITLE6=7. I Wanna Be 
TTITLE7=8. Worried Life Blues 
TTITLE8=9. Days Of Old 
TTITLE9=10. When My Heart Beats Like A Hammer 
TTITLE10=11. Hold On I'm Coming 
TTITLE11=12. Come Rain Or Come Shine 
EXTD=YEAR: 2000
EXTT0=
EXTT1=
EXTT2=
EXTT3=
EXTT4=
EXTT5=
EXTT6=
EXTT7=
EXTT8=
EXTT9=
EXTT10=
EXTT11=
PLAYORDER=
